<svg xmlns:inkscape="http://www.inkscape.org/namespaces/inkscape" xmlns:sodipodi="http://sodipodi.sourceforge.net/DTD/sodipodi-0.dtd" xmlns="http://www.w3.org/2000/svg" xmlns:svg="http://www.w3.org/2000/svg" xmlns:rdf="http://www.w3.org/1999/02/22-rdf-syntax-ns#" xmlns:cc="http://creativecommons.org/ns#" xmlns:dc="http://purl.org/dc/elements/1.1/" id="Layer_1" data-name="Layer 1" viewBox="0 0 512 512" width="512" height="512" sodipodi:docname="005-antivirus.svg" inkscape:version="1.1 (c4e8f9e, 2021-05-24)"><defs id="defs16"></defs><title id="title9">Bug</title><path d="M458,197.769a6,6,0,0,0-6,6v4.868A34.713,34.713,0,0,1,417.629,243H391V215.292a32.869,32.869,0,0,0-25.826-31.859A107.824,107.824,0,0,0,348.6,131.27l42.089-47.641a6.015,6.015,0,0,0-9.028-7.951l-40.3,45.553a109.432,109.432,0,0,0-18.09-17.878,66.06,66.06,0,0,0-132.111-.866,109.36,109.36,0,0,0-16.541,15.52L133.755,71.813a6,6,0,0,0-8.988,7.952l42.39,47.919a107.87,107.87,0,0,0-18.9,55.625A32.758,32.758,0,0,0,122,215.292V243H94.371A34.713,34.713,0,0,1,60,208.637v-4.868a6,6,0,0,0-12,0v4.868A46.725,46.725,0,0,0,94.371,255H122v50H104.986A46.076,46.076,0,0,0,59,350.992v14.74a6,6,0,0,0,12,0v-14.74A34.062,34.062,0,0,1,104.986,317H122v39.1A114.155,114.155,0,0,0,132.045,403h-.206C106.507,403,86,424.014,86,449.346v15.011a6,6,0,0,0,12,0V449.346C98,430.631,113.124,415,131.839,415h6.289c20.518,36,58.761,60,102.461,60h31.564c44.246,0,82.895-25,103.219-61H383.9A34.184,34.184,0,0,1,418,448.015v16.342a6,6,0,0,0,12,0V448.015A46.2,46.2,0,0,0,383.9,402h-2.617A117.149,117.149,0,0,0,391,356.1V318h18.416C428.131,318,443,333.608,443,352.323v13.409a6,6,0,0,0,12,0V352.323C455,326.991,434.748,306,409.416,306H391V255h26.629A46.725,46.725,0,0,0,464,208.637v-4.868A6,6,0,0,0,458,197.769ZM257.2,49.485a54.15,54.15,0,0,1,53.349,45.3A108.263,108.263,0,0,0,203.976,94.1,54.147,54.147,0,0,1,257.2,49.485Zm-.553,43.269A96.054,96.054,0,0,1,352.889,183H160.406A96.056,96.056,0,0,1,256.648,92.754ZM134,356.1V250.881c0-.71.46-1.487.46-2.3s-.46-1.594-.46-2.3V215.292a20.72,20.72,0,0,1,18.968-20.539,6.686,6.686,0,0,0,1.19.28c.524,0,1.074-.033,1.559-.033H250V463h-9.411C181.912,463,134,414.778,134,356.1ZM272.153,463H262V195h95.578c.485,0,.991.033,1.516.033a9.057,9.057,0,0,0,1.2-.172A20.763,20.763,0,0,1,379,215.292v94.34c-1,.824-.672,1.758-.672,2.75s-.328,1.926.672,2.751V356.1C379,414.778,330.83,463,272.153,463Z" id="path11" style="fill:#aae0ff;fill-opacity:1"></path><metadata></metadata></svg>