<svg xmlns="http://www.w3.org/2000/svg" id="Layer_1" height="512" viewBox="0 0 512 512" width="512" data-name="Layer 1"><path d="m256 490.126a234.126 234.126 0 0 0 165.552-399.678 234.126 234.126 0 1 0 -331.1 331.1 232.6 232.6 0 0 0 165.548 68.578zm-163.58-83.868a222.3 222.3 0 0 1 46.868-38.682c17.487 45.765 46.224 83.134 84.048 108.177a220.459 220.459 0 0 1 -124.4-62.686c-2.231-2.229-4.394-4.504-6.516-6.809zm284.48-50.471c9.442-28.593 14.681-60.147 15.238-93.787h85.9a220.284 220.284 0 0 1 -50.493 135.131 231.932 231.932 0 0 0 -50.645-41.344zm-238.9-105.787h-6.136c.347-20.2 2.136-39.607 6.136-58.008zm0 12v13.129c0 22.037 11.631 48.1 28.02 65.283q-10.334 4.3-20.193 9.568c-8.635-26.86-13.423-56.451-13.963-87.98zm12-88.04 106-51.9 106 52.047v101.022c0 23.139-15.586 52.578-34.721 65.625l-71.27 48.6-71.285-48.6c-18.809-12.826-34.724-42.878-34.724-65.625zm26.08 175.358c.629.463 1.261.916 1.9 1.35l72.02 49.12v77.536c-46.179-23.048-80.713-63.773-100.176-115.866a221.187 221.187 0 0 1 26.256-12.14zm85.92 50.47 72.021-49.12q1.071-.731 2.127-1.516a218.747 218.747 0 0 1 26.11 12.082c-19.447 52.2-54.014 93.009-100.258 116.09zm84.156-59.563c16.3-17.18 27.844-43.139 27.844-65.1v-13.125h6.136c-.538 31.438-5.3 60.949-13.889 87.748q-9.807-5.236-20.091-9.523zm33.98-90.225h-6.136v-58.008c4 18.401 5.789 37.808 6.136 58.008zm12 0c-.558-33.627-5.794-65.169-15.229-93.753a229.28 229.28 0 0 0 50.639-41.379 220.293 220.293 0 0 1 50.496 135.132zm-25.686-87.052-.744-.365c.181-.1.356-.2.537-.294.073.219.14.44.21.659zm-14.269-7.008-90.181-44.295v-76.955c46.25 23.079 80.818 63.893 100.265 116.1q-4.959 2.697-10.081 5.15zm-102.181-44.3-90.043 44.1q-5.149-2.464-10.14-5.171c19.461-52.1 54-92.833 100.183-115.879zm-103.59 50.735-.806.4c.074-.236.146-.474.221-.71.196.099.39.207.585.31zm-26.549 87.625h-85.9a220.288 220.288 0 0 1 50.512-135.157 231.824 231.824 0 0 0 50.689 41.186c-9.479 28.641-14.742 60.258-15.301 93.971zm0 12c.558 33.727 5.825 65.357 15.312 94.009a234.5 234.5 0 0 0 -50.7 41.147 220.288 220.288 0 0 1 -50.515-135.156zm168.8 213.753c37.883-25.082 66.65-62.527 84.13-108.388a219.8 219.8 0 0 1 46.8 38.874q-3.19 3.467-6.532 6.828a220.459 220.459 0 0 1 -124.395 62.686zm130.944-369.98a217.49 217.49 0 0 1 -46.8 38.906c-17.482-45.887-46.263-83.35-84.166-108.435a220.458 220.458 0 0 1 124.427 62.689c2.239 2.238 4.412 4.524 6.542 6.84zm-196.248-69.529c-37.845 25.047-66.594 62.434-84.084 108.225a220.042 220.042 0 0 1 -46.864-38.715c2.125-2.309 4.292-4.589 6.525-6.821a220.458 220.458 0 0 1 124.423-62.689z"></path><path d="m187.814 326.15q.218 0 .435-.015l30.085-2.186a6 6 0 0 0 5.533-5.367l1.565-15.135 15.21-1.622a6 6 0 0 0 5.337-6.533l-1.286-13.541 4.053-4.053 12.508 1.405a6 6 0 0 0 5.013-1.822l9.072-9.517 8.332 8.332a19.655 19.655 0 0 0 27.761 0l27.627-27.629a33.257 33.257 0 0 0 0-47.035l-28.592-28.592a33.3 33.3 0 0 0 -47.035 0l-27.632 27.628a19.629 19.629 0 0 0 0 27.761l7.708 7.707-56.607 56.606a6 6 0 0 0 -1.7 3.4l-3.326 23.358a6 6 0 0 0 5.939 6.847zm56.474-117.2 27.628-27.628a21.284 21.284 0 0 1 30.066 0l28.592 28.592a21.258 21.258 0 0 1 0 30.065l-27.628 27.631a7.639 7.639 0 0 1 -10.791 0l-47.867-47.867a7.631 7.631 0 0 1 0-10.79zm-47.482 90.66 55.194-55.188 14.855 14.854-7.217 7.57-12.419-1.395a5.986 5.986 0 0 0 -4.912 1.719l-8.093 8.093a6 6 0 0 0 -1.732 4.81l.993 10.448-14.146 1.509a6 6 0 0 0 -5.329 5.35l-1.547 14.965-17.642 1.281z"></path><path d="m304.713 242.846a6 6 0 0 0 8.484 0l6.266-6.265a15.1 15.1 0 0 0 0-21.335l-22.81-22.809a15.084 15.084 0 0 0 -21.334 0l-6.264 6.264a6 6 0 0 0 0 8.485zm-20.913-41.925a3.158 3.158 0 0 1 4.363 0l22.809 22.808a3.093 3.093 0 0 1 0 4.366l-2.023 2.022-27.174-27.175z"></path></svg>