<svg xmlns="http://www.w3.org/2000/svg" id="Layer_1" height="512" viewBox="0 0 512 512" width="512" data-name="Layer 1"><path d="m424.325 176.046a392.157 392.157 0 0 0 -45.177-35.219l31.792-31.793a6 6 0 0 0 -8.484-8.484l-33.673 33.673q-9.793-5.975-19.569-10.961c-29.858-15.203-59.507-23.314-88.214-24.162v-47.1a6 6 0 0 0 -12 0v47.179c-28.084 1.157-57.049 9.233-86.214 24.083q-10.083 5.135-20.2 11.35l-34.064-34.063a6 6 0 0 0 -8.484 8.486l32.2 32.2a393.112 393.112 0 0 0 -44.565 34.812c-42.059 37.787-67.823 74.989-68.9 76.555a6 6 0 0 0 0 6.8c1.077 1.566 26.841 38.768 68.9 76.555a393.112 393.112 0 0 0 44.565 34.812l-32.2 32.2a6 6 0 1 0 8.484 8.486l34.064-34.063q10.109 6.2 20.2 11.35c29.165 14.85 58.13 22.926 86.214 24.083v47.175a6 6 0 0 0 12 0v-47.1c28.707-.846 58.356-8.957 88.214-24.16q9.769-4.974 19.569-10.961l33.673 33.673a6 6 0 0 0 8.484-8.484l-31.792-31.793a392.157 392.157 0 0 0 45.177-35.219c42.059-37.787 67.823-74.989 68.9-76.555a6 6 0 0 0 0-6.8c-1.077-1.566-26.841-38.768-68.9-76.555zm-8.019 150.982c-37.551 33.738-95.844 73.954-160.306 73.954-28.307 0-57.793-7.7-87.64-22.872-24.1-12.256-48.485-29.383-72.468-50.905a488.984 488.984 0 0 1 -64.792-71.205 488.208 488.208 0 0 1 64.592-71.027c37.551-33.738 95.844-73.954 160.306-73.954 28.307 0 57.793 7.695 87.64 22.872 24.1 12.256 48.485 29.383 72.468 50.905a488.984 488.984 0 0 1 64.794 71.204 488.208 488.208 0 0 1 -64.594 71.028z"></path><path d="m256 119.11c-75.481 0-136.89 61.409-136.89 136.89s61.409 136.89 136.89 136.89 136.89-61.409 136.89-136.89-61.409-136.89-136.89-136.89zm0 261.78a124.89 124.89 0 1 1 124.89-124.89 125.032 125.032 0 0 1 -124.89 124.89z"></path><path d="m307.376 179.8a16.908 16.908 0 0 0 -20.891-15.5l-18.975 4.632a48.707 48.707 0 0 1 -23.021 0l-18.974-4.632a16.908 16.908 0 0 0 -20.891 15.5l-1.724 31.751c-28.554 6.369-44.873 17.537-44.873 30.808 0 23.6 50.538 36.327 98.087 36.327 25.132 0 48.86-3.242 66.812-9.125 25.667-8.414 31.055-19.317 31.055-26.981 0-13.519-15.9-24.416-44.864-30.847zm-88.795-3.021a4.839 4.839 0 0 1 4.088-.826l18.974 4.632a60.784 60.784 0 0 0 28.713 0l18.975-4.632a4.906 4.906 0 0 1 6.063 4.5l2.573 47.3-9.738 3.033a103.79 103.79 0 0 1 -64.518-.018l-9.678-3.015 2.573-47.3a4.844 4.844 0 0 1 1.975-3.677zm114.485 56.079c5.663 3.287 8.911 6.831 8.911 9.725 0 9.828-33.451 24.106-85.867 24.106-23.863 0-46.3-3.067-63.172-8.635-16.914-5.582-22.915-11.942-22.915-15.692 0-4.378 8.7-12.556 32.195-18.326l-.421 7.729a6 6 0 0 0 4.203 6.051l14.061 4.38a115.411 115.411 0 0 0 35.863 5.727 116.8 116.8 0 0 0 35.929-5.7l14.147-4.407a6 6 0 0 0 4.207-6.054l-.41-7.544c9.539 2.345 17.503 5.293 23.269 8.637z"></path><path d="m292.2 278.805a34.563 34.563 0 0 0 -24.046 9.72c-8.246-5.1-15.835-5.132-24.072-.116a34.632 34.632 0 1 0 7.138 9.66c3.5-1.941 6.314-1.9 9.847.138a34.689 34.689 0 1 0 31.133-19.4zm-72.04 57.389a22.695 22.695 0 1 1 22.695-22.694 22.72 22.72 0 0 1 -22.695 22.694zm72.043 0a22.695 22.695 0 1 1 22.697-22.694 22.719 22.719 0 0 1 -22.7 22.694z"></path></svg>