<svg xmlns="http://www.w3.org/2000/svg" id="Layer_1" data-name="Layer 1" viewBox="0 0 512 512" width="512" height="512"><title>Laptop  Shield_1</title><path d="M492.312,402H477V152.279C477,126.6,455.986,106,430.307,106H369V84.617a5.877,5.877,0,0,0-3.218-5.386l-107.2-52.687a5.929,5.929,0,0,0-5.25,0L146.207,79.079A5.865,5.865,0,0,0,143,84.468V106H81.693C56.014,106,35,126.6,35,152.279V402H19.688C16.375,402,14,404.99,14,408.3v31.2A46.3,46.3,0,0,0,60.259,486H451.741A46.3,46.3,0,0,0,498,439.5V408.3C498,404.99,495.625,402,492.312,402ZM181.24,257.566l71.447,48.775a5.919,5.919,0,0,0,6.711,0l71.369-48.775C352.288,242.9,369,211.013,369,184.984V161h56V365H87V161h56v23.984C143,211.013,159.721,242.9,181.24,257.566ZM155,88.21l101-49.6L357,88.354v96.63c0,22.1-14.729,50.21-33,62.668l-68.066,46.469-67.965-46.469C170,235.405,155,206.707,155,184.984ZM47,152.279A34.467,34.467,0,0,1,81.693,118H143v31H81.159C77.845,149,75,151.3,75,154.615V370.946A6.184,6.184,0,0,0,81.159,377H430.842A6.183,6.183,0,0,0,437,370.946V154.615c0-3.313-2.845-5.615-6.158-5.615H369V118h61.307A34.467,34.467,0,0,1,465,152.279V402H315.519a6.157,6.157,0,0,0-4.413,2.085l-8.233,8.855A34.594,34.594,0,0,1,277.452,424h-42.9a34.516,34.516,0,0,1-25.42-10.984l-8.234-9.009A6.075,6.075,0,0,0,196.482,402H47ZM486,439.5A34.284,34.284,0,0,1,451.741,474H60.259A34.285,34.285,0,0,1,26,439.5V414H193.852l6.453,7a46.692,46.692,0,0,0,34.243,15h42.9A46.7,46.7,0,0,0,311.7,421l6.452-7H486Z"></path><path d="M256,242.886a76.229,76.229,0,1,0-76.229-76.23A76.316,76.316,0,0,0,256,242.886Zm0-140.458a64.229,64.229,0,1,1-64.229,64.228A64.3,64.3,0,0,1,256,102.428Z"></path><path d="M241.445,191.156a6,6,0,0,0,8.417.177L292.9,150.707a6,6,0,1,0-8.236-8.727L245.92,178.552l-18.4-18.9a6,6,0,0,0-8.6,8.373Z"></path></svg>