<svg xmlns="http://www.w3.org/2000/svg" id="Layer_1" height="512" viewBox="0 0 512 512" width="512" data-name="Layer 1"><path d="m126.6 321h52.209a30.879 30.879 0 0 0 7.473 6.331l1.718 1.458v46.211h-57.628a6.313 6.313 0 0 0 -6.372 5.981v43.4a33.953 33.953 0 0 0 -15.778 8.5 31.165 31.165 0 1 0 27.778-8.5v-37.381h58.265a5.8 5.8 0 0 0 5.735-6.019v-44.008l50 33.919v59.124a31.092 31.092 0 1 0 12 0v-59.124l53-35.85v45.939c0 3.314 2.252 6.019 5.566 6.019h55.434v37.384a30.947 30.947 0 1 0 27.79 8.5 34 34 0 0 0 -15.79-8.5v-43.4a6.313 6.313 0 0 0 -6.372-5.984h-54.628v-48.171c2-1.62 4.053-3.829 6.191-5.829h52.209a93.252 93.252 0 0 0 93.314-93.118 5.339 5.339 0 0 0 -.238-1.583 80.785 80.785 0 0 0 -80.829-79.407c-2.734 0-5.577.056-8.462.272a132.121 132.121 0 0 0 -131.879-126.712 130.674 130.674 0 0 0 -80.257 27.237 133.208 133.208 0 0 0 -45.592 64.946 115.709 115.709 0 0 0 -98.171 114.514v.223.382a1.069 1.069 0 0 0 -.008.127 93.253 93.253 0 0 0 93.322 93.119zm17.25 147.328a19.053 19.053 0 1 1 0-26.957 18.937 18.937 0 0 1 0 26.957zm251.257 0a19.053 19.053 0 1 1 0-26.957 18.938 18.938 0 0 1 0 26.957zm-232.107-208.361v-89.31l93-45.7 93 45.83v89.176c0 19.981-13.806 46.38-30.33 57.646l-62.747 42.846-62.633-42.843c-16.523-11.265-30.29-37.664-30.29-57.645zm112.062 200.514a19.046 19.046 0 1 1 -5.583-13.481 18.937 18.937 0 0 1 5.583 13.481zm-229.776-233.481a103.4 103.4 0 0 1 91.5-103.047 5.962 5.962 0 0 0 5.076-4.285 119.992 119.992 0 0 1 235.425 32.721c0 .486 0 .97-.011 1.455a6 6 0 0 0 7.171 6.036 69.231 69.231 0 0 1 82.045 68.2 4.618 4.618 0 0 0 .207 1.372 81.239 81.239 0 0 1 -81.299 79.548h-41.709c10.609-14 17.309-32.856 17.309-49.033v-92.914a5.861 5.861 0 0 0 -3.2-5.385l-99.23-48.775a5.915 5.915 0 0 0 -5.245 0l-99.135 48.636a5.849 5.849 0 0 0 -3.19 5.386v93.052c0 16.177 6.7 35.033 17.309 49.033h-41.709a81.24 81.24 0 0 1 -81.313-80.741c.009-.145.013-.192.011-.338 0-.19-.007-.523-.018-.7 0-.024 0-.219 0-.219z"></path><path d="m256 305.973a62.973 62.973 0 1 0 -62.973-62.973 63.045 63.045 0 0 0 62.973 62.973zm0-113.946a50.973 50.973 0 1 1 -50.973 50.973 51.032 51.032 0 0 1 50.973-50.973z"></path></svg>