<svg xmlns:inkscape="http://www.inkscape.org/namespaces/inkscape" xmlns:sodipodi="http://sodipodi.sourceforge.net/DTD/sodipodi-0.dtd" xmlns="http://www.w3.org/2000/svg" xmlns:svg="http://www.w3.org/2000/svg" xmlns:rdf="http://www.w3.org/1999/02/22-rdf-syntax-ns#" xmlns:cc="http://creativecommons.org/ns#" xmlns:dc="http://purl.org/dc/elements/1.1/" id="Layer_1" data-name="Layer 1" viewBox="0 0 512 512" width="512" height="512" sodipodi:docname="048-bug.svg" inkscape:version="1.1 (c4e8f9e, 2021-05-24)"><defs id="defs2380"></defs><title id="title2369">Search Bug</title><path d="M290.715,204A27.247,27.247,0,0,0,318,176.882V174.3a6,6,0,0,0-12,0v2.581A15.234,15.234,0,0,1,290.715,192H279V180.412a20.064,20.064,0,0,0-13.646-19.066,59.828,59.828,0,0,0-7.874-25.167l21.009-23.723a5.994,5.994,0,1,0-8.971-7.952L250.3,126.229a60.8,60.8,0,0,0-6.849-6.557,37.851,37.851,0,0,0-75.623-.471,60.882,60.882,0,0,0-5.946,5.415l-19.6-22.16a6,6,0,1,0-8.988,7.951l21.06,23.807a60.034,60.034,0,0,0-9.21,27.021A20.25,20.25,0,0,0,131,180.412V192H119.285A15.234,15.234,0,0,1,104,176.882V174.3a6,6,0,0,0-12,0v2.581A27.247,27.247,0,0,0,119.285,204H131v21h-6.085C109.927,225,98,237.388,98,252.376v7.817a6,6,0,0,0,12,0v-7.817A15.141,15.141,0,0,1,124.915,237H131v18.085a65.383,65.383,0,0,0,4.115,22.558A27.118,27.118,0,0,0,112,304.535V312.5a6,6,0,0,0,12,0v-7.961c0-8.371,6.784-15.535,15.155-15.535H140.9c11.555,19,32.3,32,55.929,32h16.739a65.98,65.98,0,0,0,56.354-32h2.9A14.9,14.9,0,0,1,288,303.829V312.5a6,6,0,0,0,12,0v-8.667a27.294,27.294,0,0,0-24.614-27.05A65.254,65.254,0,0,0,279,255.085V238h7.359C294.73,238,302,244.711,302,253.082v7.111a6,6,0,0,0,12,0v-7.111C314,238.094,301.347,226,286.359,226H279V204Zm-133.3-44c3.013-23,23.35-42.223,47.93-42.223S250.26,137,253.273,160Zm48.223-64.7a25.9,25.9,0,0,1,23.827,15.816,60.232,60.232,0,0,0-47.506-.328A25.888,25.888,0,0,1,205.637,95.3ZM143,255.085V199.747c0-.535.244-1.1.244-1.684S143,196.915,143,196.38V180.412a8.222,8.222,0,0,1,7.237-8.055c.221.025.5-.1.724-.1.379,0,.8-.252,1.161-.252H199V309h-2.173A54.114,54.114,0,0,1,143,255.085ZM213.566,309H211V172h47.565c.359,0,.728.252,1.107.252.162,0,.231.061.39.048A8.122,8.122,0,0,1,267,180.412v49.469c0,.632-.356,1.31-.356,2.02s.356,1.388.356,2.02v21.164C267,284.649,243.13,309,213.566,309Z" id="path2371" style="fill:#aae0ff;fill-opacity:1"></path><path d="M206.644,44.771c-89.249,0-161.859,72.578-161.859,161.788S117.4,368.347,206.644,368.347,368.5,295.769,368.5,206.559,295.893,44.771,206.644,44.771Zm0,311.576c-82.633,0-149.859-67.195-149.859-149.788S124.011,56.771,206.644,56.771,356.5,123.965,356.5,206.559,289.276,356.347,206.644,356.347Z" id="path2373" style="fill:#aae0ff;fill-opacity:1"></path><path d="M406.15,351.4a6,6,0,0,0-8.484,0L378.851,370.2l-31.077-31.065a192.937,192.937,0,0,0,52.647-132.579c0-106.8-86.928-193.692-193.777-193.692S12.867,99.757,12.867,206.559,99.8,400.25,206.644,400.25a193.116,193.116,0,0,0,132.643-52.628l31.077,31.065-19.03,19.021a6,6,0,0,0,0,8.488l81.672,81.63a38.726,38.726,0,0,0,54.742-.026q.756-.743,1.471-1.53c13.727-15.115,13.067-39.031-1.434-53.276ZM206.644,388.25c-100.232,0-181.777-81.506-181.777-181.691S106.412,24.867,206.644,24.867s181.777,81.507,181.777,181.692S306.876,388.25,206.644,388.25Zm195.264-24.127,16.018,16.011-37.844,37.829-16.019-16.011ZM480.336,478.2c-.323.356-.656.7-1.03,1.07a26.8,26.8,0,0,1-37.85.034l-52.887-52.86,37.845-37.829,52.924,52.9A26.72,26.72,0,0,1,480.336,478.2Z" id="path2375" style="fill:#aae0ff;fill-opacity:1"></path><metadata></metadata></svg>