<svg xmlns="http://www.w3.org/2000/svg" id="Layer_1" data-name="Layer 1" viewBox="0 0 512 512" width="512" height="512"><title>Security Camera</title><path d="M499,448H286.786L252.763,329h72.972A6.119,6.119,0,0,0,332,323.134V270H436.289A5.548,5.548,0,0,0,442,264.253V128.322a6.047,6.047,0,0,0,0-1.837V58.034A6.029,6.029,0,0,0,436,52H12.838a6.02,6.02,0,0,0-4.961,9.4l47.684,70.023A5.952,5.952,0,0,0,60.521,134H101v12H59.021A6.16,6.16,0,0,0,53,152.163v88.249c0,3.314,2.708,5.588,6.021,5.588H101v18.253A5.542,5.542,0,0,0,106.7,270H164v53.134A5.538,5.538,0,0,0,169.575,329h70.714a2.241,2.241,0,0,1,.037.226l36.168,126.391A6.031,6.031,0,0,0,282.263,460H499a6,6,0,0,0,0-12ZM24.178,64H430v58H63.7ZM65,234V158h36v76Zm48,6.412V134H430V258H113ZM176,270H320v47H176Z"></path><path d="M207,181a6,6,0,0,0-6-6H152a6,6,0,0,0-6,6v29a6,6,0,0,0,6,6h49a6,6,0,0,0,6-6Zm-12,24H158V187h37Z"></path><path d="M287,181a6,6,0,0,0-6-6H232a6,6,0,0,0-6,6v29a6,6,0,0,0,6,6h49a6,6,0,0,0,6-6Zm-12,24H238V187h37Z"></path><path d="M368,181a6,6,0,0,0-6-6H313a6,6,0,0,0-6,6v29a6,6,0,0,0,6,6h49a6,6,0,0,0,6-6Zm-12,24H319V187h37Z"></path></svg>