<svg xmlns="http://www.w3.org/2000/svg" id="_x33_0" height="512" viewBox="0 0 64 64" width="512"><g><g><g><circle cx="21" cy="60" fill="#fcd770" r="2"></circle></g><g><circle cx="36" cy="54" fill="#fcd770" r="2"></circle></g><g><circle cx="6" cy="54" fill="#fcd770" r="2"></circle></g><g><circle cx="36" cy="10" fill="#fcd770" r="2"></circle></g><g><circle cx="6" cy="10" fill="#fcd770" r="2"></circle></g><g><circle cx="21" cy="4" fill="#fcd770" r="2"></circle></g><g><path d="m62 29v6l-4-1-3.03-.76c-.57-.14-.97-.65-.97-1.24s.4-1.1.97-1.24l3.03-.76z" fill="#ccd1d9"></path></g><g><circle cx="21" cy="33" fill="#69d6f4" r="19"></circle></g><g><path d="m54 32c0-.59.4-1.1.97-1.24l3.03-.76-5.12-3.07c-.6-.36-1.22-.69-1.85-.99-.34-.16-.68-.3-1.03-.44-.72-.3-1.46-.55-2.21-.76-1.77-.49-3.62-.74-5.48-.74-1.46 0-2.91.16-4.33.46-1.37.3-2.7.74-3.98 1.31v12.46l4.79 1.46c1.15.21 2.33.31 3.52.31 2.64 0 5.26-.51 7.69-1.5.35-.14.69-.28 1.03-.44.63-.3 1.25-.63 1.85-.99l5.12-3.07-3.03-.76c-.57-.14-.97-.65-.97-1.24z" fill="#e6e9ed"></path></g><g><path d="m58 34v10.15c0 1.02-.83 1.85-1.85 1.85-.71 0-1.35-.4-1.66-1.02l-3.46-6.92c.63-.3 1.25-.63 1.85-.99z" fill="#ff826e"></path></g><g><path d="m58 19.85v10.15l-5.12-3.07c-.6-.36-1.22-.69-1.85-.99l3.46-6.92c.31-.62.95-1.02 1.66-1.02 1.02 0 1.85.83 1.85 1.85z" fill="#ff826e"></path></g><g><path d="m34 25.77v12.46c-.06-.02-.11-.04-.17-.07-1.4-.64-2.74-1.43-3.97-2.39-1.08-.8-2.08-1.74-2.99-2.78l-.87-.99.87-.99c.82-.94 1.71-1.79 2.67-2.53 1.37-1.11 2.87-2.01 4.46-2.71z" fill="#ff826e"></path></g></g><g><path d="m21 7c1.654 0 3-1.346 3-3s-1.346-3-3-3-3 1.346-3 3 1.346 3 3 3zm0-4c.552 0 1 .448 1 1s-.448 1-1 1-1-.448-1-1 .448-1 1-1z"></path><path d="m6 13c1.654 0 3-1.346 3-3s-1.346-3-3-3-3 1.346-3 3 1.346 3 3 3zm0-4c.552 0 1 .448 1 1s-.448 1-1 1-1-.448-1-1 .448-1 1-1z"></path><path d="m36 13c1.654 0 3-1.346 3-3s-1.346-3-3-3-3 1.346-3 3 1.346 3 3 3zm0-4c.552 0 1 .448 1 1s-.448 1-1 1-1-.448-1-1 .448-1 1-1z"></path><path d="m21 57c-1.654 0-3 1.346-3 3s1.346 3 3 3 3-1.346 3-3-1.346-3-3-3zm0 4c-.552 0-1-.448-1-1s.448-1 1-1 1 .448 1 1-.448 1-1 1z"></path><path d="m6 51c-1.654 0-3 1.346-3 3s1.346 3 3 3 3-1.346 3-3-1.346-3-3-3zm0 4c-.552 0-1-.448-1-1s.448-1 1-1 1 .448 1 1-.448 1-1 1z"></path><path d="m36 51c-1.654 0-3 1.346-3 3s1.346 3 3 3 3-1.346 3-3-1.346-3-3-3zm0 4c-.552 0-1-.448-1-1s.448-1 1-1 1 .448 1 1-.448 1-1 1z"></path><path d="m59 28.719v-8.865c0-1.574-1.28-2.854-2.854-2.854-1.088 0-2.065.604-2.553 1.578l-3.035 6.07c-2.604-1.079-5.404-1.648-8.244-1.648-1.287 0-2.56.122-3.808.346-2.702-4.902-7.229-8.359-12.507-9.709v-1.637c0-.552.448-1 1-1h4v-2h-4c-1.654 0-3 1.346-3 3v1.228c-.658-.098-1.326-.16-2-.193v-4.035h-2v4.051c-.676.034-1.343.1-2 .199v-1.25c0-1.654-1.346-3-3-3h-4v2h4c.552 0 1 .448 1 1v1.658c-8.611 2.229-14.999 10.043-14.999 19.342 0 9.276 6.356 17.073 14.934 19.325-.136.39-.497.675-.934.675h-4v2h4c1.4 0 2.569-.967 2.898-2.266.69.108 1.39.18 2.102.215v2.051h2v-2.039c.709-.036 1.414-.098 2.107-.208.337 1.289 1.5 2.247 2.893 2.247h4v-2h-4c-.436 0-.797-.284-.934-.673 5.905-1.564 10.904-5.79 13.341-11.531.958.13 1.928.204 2.907.204 2.84 0 5.639-.569 8.243-1.648l3.035 6.07c.488.974 1.466 1.578 2.554 1.578 1.574 0 2.854-1.28 2.854-2.854v-8.865l4 1.001v-8.563zm-3.618-9.246c.145-.292.438-.473.764-.473.47 0 .854.384.854.854v8.379l-3.61-2.166c-.335-.201-.678-.385-1.022-.567zm-27.763 12.859-.291-.332.291-.332c1.541-1.761 3.37-3.204 5.381-4.296v9.256c-2.011-1.092-3.84-2.535-5.381-4.296zm-6.344 18.086-.275.245-.275-.245c-2.354-2.093-4.22-4.626-5.532-7.418h11.602c-1.313 2.793-3.167 5.325-5.52 7.418zm-6.908-9.418c-.89-2.473-1.367-5.102-1.367-7.784 0-.072.009-.144.01-.216h12.536l.567.648c.821.938 1.718 1.791 2.672 2.562-.216 1.647-.611 3.249-1.164 4.789h-13.254zm1.025-18h11.212c.801 1.616 1.404 3.329 1.808 5.099-.815.689-1.586 1.439-2.298 2.253l-.568.648h-12.436c.27-2.797 1.045-5.505 2.282-8zm-4.29 8h-7.984c.326-2.936 1.357-5.661 2.926-8h7.161c-1.13 2.523-1.857 5.218-2.103 8zm9.898-15.505 2.092 2.325c.891.99 1.681 2.059 2.384 3.181h-8.956c.701-1.118 1.493-2.186 2.388-3.181zm9.152 11.278c-.346-1.296-.801-2.555-1.347-3.773h7.157c.177.266.354.532.518.809-2.256.636-4.392 1.638-6.328 2.964zm4.267-5.773h-6.619c-.903-1.613-1.975-3.134-3.222-4.519l-1.189-1.321c4.297.567 8.187 2.648 11.03 5.84zm-15.826-5.82-1.171 1.301c-1.251 1.39-2.31 2.914-3.21 4.519h-6.59c2.79-3.107 6.634-5.236 10.971-5.82zm-7.583 17.82c-.001.072-.01.143-.01.216 0 2.671.429 5.296 1.244 7.784h-7.344c-1.205-2.414-1.9-5.124-1.9-8zm-4.966 10h6.96c1.22 2.868 2.971 5.505 5.188 7.758-5.049-.796-9.412-3.679-12.148-7.758zm17.716 7.784c2.235-2.26 4.005-4.897 5.232-7.784h6.972c-2.789 4.149-7.233 7.004-12.204 7.784zm13.356-9.784h-7.377c.37-1.13.658-2.287.865-3.47 2.078 1.348 4.376 2.326 6.791 2.893-.088.196-.184.386-.279.577zm-2.116-3.427v-11.146c2.3-.93 4.778-1.427 7.314-1.427 2.291 0 4.552.409 6.686 1.187v3.813h2v-2.955c.461.229.917.471 1.36.737l3.056 1.833-.689.172c-1.017.255-1.727 1.165-1.727 2.213s.71 1.958 1.728 2.212l.689.172-3.056 1.834c-.444.266-.899.508-1.36.737v-2.955h-2v3.813c-2.135.778-4.396 1.187-6.687 1.187-2.536 0-5.014-.497-7.314-1.427zm21.146 7.427c-.325 0-.618-.181-.764-.473l-3.014-6.027c.344-.182.687-.366 1.022-.567l3.61-2.167v8.379c0 .471-.384.855-.854.855zm4.854-11.281-5.787-1.446c-.125-.032-.213-.144-.213-.273s.088-.241.212-.272l5.788-1.447z"></path><path d="m41 19h6v2h-6z"></path><path d="m45 13h16v2h-16z"></path><path d="m41 43h6v2h-6z"></path><path d="m45 49h16v2h-16z"></path></g></g></svg>