<svg xmlns="http://www.w3.org/2000/svg" id="Layer_5" height="512" viewBox="0 0 64 64" width="512"><path d="m57 54v4c0 2.21-1.79 4-4 4h-42c-2.21 0-4-1.79-4-4v-4h2 46z" fill="#969faa"></path><path d="m24 22h5c-.63.83-1 1.87-1 3 0 .34.03.68.1 1h-4.1z" fill="#ccd1d9"></path><path d="m55 30v24h-46v-22h4v10 8h38v-20z" fill="#ccd1d9"></path><path d="m40 30h-7c-2.42 0-4.44-1.72-4.9-4h-4.1v6h-11v10 8h38v-20z" fill="#69d6f4"></path><g fill="#ff826e"><path d="m47 34v12h-6v-11l1-1z"></path><path d="m41 35v11h-6v-8h3z"></path><path d="m29 38h6v8h-6z"></path><path d="m29 38v8h-6v-2z"></path></g><path d="m56.92 20h.08c2.76 0 5 2.24 5 5s-2.24 5-5 5h-2-4-11-7c-2.42 0-4.44-1.72-4.9-4-.07-.32-.1-.66-.1-1 0-1.13.37-2.17 1-3 .91-1.21 2.37-2 4-2 .08 0 .17 0 .25.01-.16-.64-.25-1.32-.25-2.01 0-4.42 3.58-8 8-8 3.55 0 6.55 2.31 7.6 5.5.73-.32 1.55-.5 2.4-.5 2.98 0 5.44 2.16 5.92 5z" fill="#e6e9ed"></path><path d="m10 2v8h-8v8 14h7 4 11v-6-4-4-16z" fill="#f0d0b4"></path><path d="m10 2v8h-8z" fill="#5cd6b3"></path><path d="m6 22h14v6h-14z" fill="#fcd770"></path><path d="m14 6h6v4h-6z" fill="#e6e9ed"></path><path d="m35 57h2v2h-2z"></path><path d="m31 57h2v2h-2z"></path><path d="m27 57h2v2h-2z"></path><path d="m57 31c3.309 0 6-2.691 6-6 0-3.065-2.311-5.596-5.282-5.953-.853-2.967-3.557-5.047-6.718-5.047-.621 0-1.231.081-1.824.242-1.454-3.173-4.623-5.242-8.176-5.242-4.963 0-9 4.038-9 9 0 .362.025.723.068 1.08-1.393.219-2.625.915-3.527 1.92h-3.541v-20h-15.414l-8.586 8.586v23.414h7v20h-2v5c0 2.757 2.243 5 5 5h42c2.757 0 5-2.243 5-5v-5h-2v-22zm-24-10c2.206 0 4 1.794 4 4h2c0-2.933-2.117-5.377-4.903-5.895-.058-.364-.097-.732-.097-1.105 0-3.86 3.141-7 7-7 3.029 0 5.701 1.936 6.647 4.816l.344 1.045 1.008-.441c.636-.279 1.309-.42 2.001-.42 2.096 0 3.904 1.284 4.642 3.161-2.656.618-4.642 2.998-4.642 5.839h2c0-2.206 1.794-4 4-4s4 1.794 4 4-1.794 4-4 4h-14.586l4.586-4.586v2.586h2v-6h-6v2h2.586l-6 6h-6.586c-2.206 0-4-1.794-4-4s1.794-4 4-4zm-19 12h11v-6h2.35c.826 2.327 3.043 4 5.65 4h4.586l-2 2h-9l-6.293 6.293 1.414 1.414 5.707-5.707h9l4-4h9.586v18h-36zm13.35-10c-.222.627-.35 1.298-.35 2h-2v-2zm-18.35-18.586v4.586h-4.586zm-6 6.586h8v-8h12v28h-20zm53 47c0 1.654-1.346 3-3 3h-42c-1.654 0-3-1.346-3-3v-3h48zm-2-5h-44v-20h2v18h40v-20h2z"></path><path d="m37.586 37h-9l-6.586 6.586v3.414h26v-14h-6.414zm.828 2 1.586-1.586v7.586h-4v-6zm-8.414 0h4v6h-4zm-6 5.414 4-4v4.586h-4zm22-9.414v10h-4v-9.586l.414-.414z"></path><path d="m13 11h8v-6h-8zm2-4h4v2h-4z"></path><path d="m5 13h16v2h-16z"></path><path d="m5 17h16v2h-16z"></path><path d="m5 29h16v-8h-16zm2-6h12v4h-12z"></path><path d="m16 45h4v2h-4z"></path><path d="m16 41h4v2h-4z"></path><path d="m16 37h4v2h-4z"></path></svg>