<svg xmlns="http://www.w3.org/2000/svg" id="Layer_5" height="512" viewBox="0 0 64 64" width="512"><g><g><g><path d="m2 21v22 10c0 1.1.9 2 2 2h30.92c-.58-.68-.92-1.35-.92-2 0-1.88.66-5.73 1.36-9.29.79-4.04 1.64-7.71 1.64-7.71v-5.75c0-2.43.82-4.69 2.24-6.5.87-1.11 1.96-2.05 3.22-2.75z" fill="#e6e9ed"></path></g><g><path d="m41.01 9c.15 1.16.36 1.85.68 2.49-.42.37-.69.91-.69 1.51 0 .55.22 1.05.59 1.41.36.37.86.59 1.41.59h1.13c.18.7.55 1.33 1.04 1.83.21.21.45.4.7.55v.01l-.87 2.61c-.28.07-.56.15-.82.25-.61.2-1.18.45-1.72.75h-40.46v-10c0-1.1.9-2 2-2z" fill="#b4dd7f"></path></g><g><path d="m22 13h4v4h-4z" fill="#e6e9ed"></path></g><g><path d="m14 13h4v4h-4z" fill="#e6e9ed"></path></g><g><path d="m6 13h4v4h-4z" fill="#e6e9ed"></path></g><g><path d="m6 47h6v4h-6z" fill="#4fc1e9"></path></g><g><path d="m16 47h6v4h-6z" fill="#4fc1e9"></path></g><g><path d="m26 47h6v4h-6z" fill="#4fc1e9"></path></g><g><path d="m6 25h16v14h-16z" fill="#ff826e"></path></g><g><path d="m48 24 3 3 .82-6.75c4.26 1.44 7.18 5.44 7.18 10v5.75h-1.34c-.9 0-1.79-.09-2.66-.26-2.64-.52-5.08-1.82-7-3.74-1.28 1.28-2.79 2.28-4.43 2.96-.83.34-1.69.6-2.57.78-.87.17-1.76.26-2.66.26h-1.34v-5.75c0-2.43.82-4.69 2.24-6.5.87-1.11 1.96-2.05 3.22-2.75.54-.3 1.11-.55 1.72-.75l.82 6.75z" fill="#ff826e"></path></g><g><path d="m51.82 20.25-.82 6.75-3-3 3-4c.28.07.56.15.82.25z" fill="#fc6e51"></path></g><g><path d="m45 20 3 4-3 3-.82-6.75c.26-.1.54-.18.82-.25z" fill="#fc6e51"></path></g><g><path d="m52 11h-.01c-.12-1.12-1.07-2-2.22-2h-3.54c-1.15 0-2.1.88-2.22 2h-.01-1c-.5 0-.96.19-1.31.49-.32-.64-.53-1.33-.68-2.49 0-.15-.01-.29-.01-.44 0-3.62 2.94-6.56 6.56-6.56h.88c1.81 0 3.45.74 4.64 1.92 1.18 1.19 1.92 2.83 1.92 4.64 0 1.04-.25 2.04-.69 2.93-.35-.3-.81-.49-1.31-.49z" fill="#656d78"></path></g><g><path d="m53 11c.5 0 .96.19 1.31.49.03.04.07.07.1.1.37.36.59.86.59 1.41 0 1.1-.9 2-2 2h-1.13c.09-.32.13-.65.13-1v-2.77c0-.08 0-.15-.01-.23h.01z" fill="#f0d0b4"></path></g><g><path d="m45.87 17.38c1.85.61 1.99.62 2.13.62.78 0 1.51-.23 2.13-.62v.01l.87 2.61-3 4-3-4 .87-2.61z" fill="#f0d0b4"></path></g><g><path d="m51.87 15c-.26 1-.89 1.85-1.74 2.38-.62.39-1.35.62-2.13.62-.14 0-.28-.01-2.13-.62-.25-.15-.49-.34-.7-.55-.49-.5-.86-1.13-1.04-1.83-.09-.32-.13-.65-.13-1v-2.77c0-.08 0-.15.01-.23.12-1.12 1.07-2 2.22-2h3.54c1.15 0 2.1.88 2.22 2 .01.08.01.15.01.23v2.77c0 .35-.04.68-.13 1z" fill="#f0d0b4"></path></g><g><path d="m44 14c0 .35.04.68.13 1h-1.13c-.55 0-1.05-.22-1.41-.59-.37-.36-.59-.86-.59-1.41 0-.6.27-1.14.69-1.51.35-.3.81-.49 1.31-.49h1 .01c-.01.08-.01.15-.01.23z" fill="#f0d0b4"></path></g><g><path d="m38.34 36c.9 0 1.79-.09 2.66-.26.88-.18 1.74-.44 2.57-.78 1.64-.68 3.15-1.68 4.43-2.96 1.92 1.92 4.36 3.22 7 3.74.87.17 1.76.26 2.66.26h1.34s3 13 3 17c0 3.33-9.03 7.36-12.04 8.61-.62.26-1.29.39-1.96.39s-1.34-.13-1.96-.39c-2.42-1.01-8.75-3.81-11.12-6.61-.58-.68-.92-1.35-.92-2 0-1.88.66-5.73 1.36-9.29.79-4.04 1.64-7.71 1.64-7.71zm19.64 16.49c-.15-2.47-1.24-8.1-2.21-12.59-2.79-.29-5.44-1.24-7.77-2.77-2.33 1.53-4.98 2.48-7.77 2.77-.97 4.49-2.06 10.12-2.21 12.59.84.97 3.89 3.08 9.55 5.43.13.05.28.08.43.08s.3-.03.43-.08c5.66-2.35 8.71-4.46 9.55-5.43z" fill="#fcd770"></path></g><g><path d="m57.98 52.49c-.84.97-3.89 3.08-9.55 5.43-.13.05-.28.08-.43.08s-.3-.03-.43-.08c-5.66-2.35-8.71-4.46-9.55-5.43.15-2.47 1.24-8.1 2.21-12.59 2.79-.29 5.44-1.24 7.77-2.77 2.33 1.53 4.98 2.48 7.77 2.77.97 4.49 2.06 10.12 2.21 12.59z" fill="#ffeaa7"></path></g><g><path d="m48 42c2.21 0 4 1.79 4 4 0 1.48-.81 2.75-2 3.45v4.55h-4v-4.55c-1.19-.7-2-1.97-2-3.45 0-2.21 1.79-4 4-4z" fill="#e6e9ed"></path></g></g><g><path d="m48 41c-2.757 0-5 2.243-5 5 0 1.563.754 3.04 2 3.979v5.021h6v-5.021c1.246-.939 2-2.416 2-3.979 0-2.757-2.243-5-5-5zm1.497 7.581-.497.289v4.13h-2v-4.13l-.497-.289c-.941-.548-1.503-1.513-1.503-2.581 0-1.654 1.346-3 3-3s3 1.346 3 3c0 1.068-.562 2.033-1.503 2.581z"></path><path d="m56.596 38.982-.72-.075c-2.646-.279-5.112-1.158-7.327-2.611l-.549-.36-.549.36c-2.215 1.453-4.681 2.332-7.327 2.611l-.72.075-.153.708c-.475 2.198-2.04 9.612-2.231 12.734l-.025.407.267.309c.981 1.134 4.168 3.308 9.926 5.699.255.107.529.161.812.161.284 0 .557-.054.813-.159 5.757-2.392 8.945-4.565 9.927-5.7l.267-.309-.025-.407c-.191-3.122-1.757-10.537-2.231-12.734zm-8.55 18.011c-.007.003-.021.007-.046.007l-.048-.008c-5.199-2.16-7.93-3.996-8.902-4.883.222-2.431 1.141-7.235 2.008-11.305 2.454-.357 4.829-1.21 6.942-2.491 2.113 1.281 4.488 2.134 6.942 2.491.867 4.069 1.786 8.874 2.008 11.305-.972.887-3.705 2.725-8.904 4.884z"></path><path d="m60 35.886v-5.64c0-5.128-3.353-9.602-8.22-11.068l-.483-1.448c.541-.478.985-1.06 1.279-1.729h.424c1.654 0 3-1.346 3-3 0-.628-.195-1.21-.527-1.693.341-.875.527-1.81.527-2.748 0-4.168-3.392-7.56-7.56-7.56h-.88c-3.979 0-7.243 3.093-7.531 7h-36.029c-1.654 0-3 1.346-3 3v42c0 1.654 1.346 3 3 3h30.497c2.338 2.484 7.025 4.818 11.158 6.535.743.309 1.533.465 2.345.465s1.602-.156 2.347-.465c5.772-2.398 12.653-5.999 12.653-9.535 0-3.919-2.693-15.774-3-17.114zm-2-5.64v4.754h-.343c-.56 0-1.111-.049-1.657-.12v-5.88h-2v5.465c-1.978-.594-3.791-1.67-5.293-3.172l-.707-.707-.707.707c-1.502 1.502-3.315 2.578-5.293 3.172v-5.465h-2v5.88c-.546.071-1.097.12-1.657.12h-.343v-4.754c0-3.706 2.122-6.992 5.342-8.573l.913 7.485 3.745-3.744 3.744 3.744.913-7.485c3.221 1.581 5.343 4.867 5.343 8.573zm-7-16.246c0 1.654-1.346 3-3 3s-3-1.346-3-3v-2.774c0-.676.55-1.226 1.226-1.226h3.549c.675 0 1.225.55 1.225 1.226zm-5.256 10.842-.318-2.607 1.254 1.672zm4.83-2.608-.318 2.607-.936-.936zm-.688-2.414-1.886 2.514-1.886-2.514.361-1.083c.484.156.99.263 1.525.263s1.041-.107 1.525-.263zm3.114-5.82v-2c.552 0 1 .448 1 1s-.448 1-1 1zm-5.44-11h.881c3.065 0 5.559 2.494 5.559 5.56 0 .526-.085 1.049-.231 1.553-.247-.067-.502-.113-.769-.113h-.245c-.484-1.172-1.636-2-2.981-2h-3.549c-1.344 0-2.497.828-2.981 2h-.244c-.267 0-.522.046-.769.112-.147-.504-.231-1.027-.231-1.552 0-3.066 2.494-5.56 5.56-5.56zm-4.56 9v2c-.552 0-1-.448-1-1s.448-1 1-1zm-39-2h36.151c.087.447.211.884.376 1.307-.332.483-.527 1.065-.527 1.693 0 1.654 1.346 3 3 3h.424c.294.67.739 1.251 1.279 1.729l-.483 1.448c-.702.212-1.369.492-2.002.822h-39.218v-9c0-.551.448-.999 1-.999zm0 44c-.552 0-1-.448-1-1v-31h36.454c-2.154 2.117-3.454 5.055-3.454 8.246v5.64c-.307 1.34-3 13.195-3 17.114 0 .333.079.667.195 1zm45.58 6.688c-1 .414-2.161.414-3.159 0-6.831-2.838-11.421-5.927-11.421-7.688 0-3.289 2.16-13.154 2.799-16h.544c3.591 0 6.984-1.282 9.657-3.63 2.673 2.348 6.066 3.63 9.657 3.63h.544c.639 2.846 2.799 12.71 2.799 16 0 1.761-4.59 4.85-11.42 7.688z"></path><path d="m47 27h2v2h-2z"></path><path d="m11 12h-6v6h6zm-2 4h-2v-2h2z"></path><path d="m19 12h-6v6h6zm-2 4h-2v-2h2z"></path><path d="m27 12h-6v6h6zm-2 4h-2v-2h2z"></path><path d="m23 24h-18v16h18zm-2 14h-14v-12h14z"></path><path d="m5 52h8v-6h-8zm2-4h4v2h-4z"></path><path d="m15 52h8v-6h-8zm2-4h4v2h-4z"></path><path d="m33 46h-8v6h8zm-2 4h-4v-2h4z"></path><path d="m20.707 28.707-1.414-1.414-7.293 7.293-2.293-2.293-1.414 1.414 3.707 3.707z"></path><path d="m5 42h28v2h-28z"></path><path d="m25 38h8v2h-8z"></path><path d="m25 34h8v2h-8z"></path><path d="m25 30h8v2h-8z"></path><path d="m25 26h8v2h-8z"></path></g></g></svg>