<svg xmlns="http://www.w3.org/2000/svg" id="_x33_0" height="512" viewBox="0 0 64 64" width="512"><g><g><g><path d="m8 54v8h-4c-1.1 0-2-.9-2-2v-6z" fill="#e6e9ed"></path></g><g><path d="m28 54v8h-10v-8h4z" fill="#e6e9ed"></path></g><g><path d="m48.6 61.47 1.4.53h-12v-8h2.01c1.84 3.37 4.86 6.07 8.59 7.47z" fill="#e6e9ed"></path></g><g><path d="m38 46.18c0 2.78.72 5.46 2.01 7.82h-2.01-6v-8h6z" fill="#e6e9ed"></path></g><g><path d="m22 46v8h-4-6v-8h6z" fill="#e6e9ed"></path></g><g><path d="m2 38h6v8h-6z" fill="#e6e9ed"></path></g><g><path d="m28 38v8h-6-4v-8h4z" fill="#e6e9ed"></path></g><g><path d="m56 30v5.25.01l-.49.24c-.3.15-.63.23-.96.23-.57 0-1.12-.23-1.52-.63l-1.03-1.03v-4.07z" fill="#e6e9ed"></path></g><g><path d="m38 32.25v5.75h-6v-8h10v4.25z" fill="#e6e9ed"></path></g><g><path d="m22 30v8h-4-6v-8z" fill="#e6e9ed"></path></g><g><path d="m38 54v8h-10v-8h4z" fill="#ccd1d9"></path></g><g><path d="m18 54v8h-10v-8h4z" fill="#ccd1d9"></path></g><g><path d="m32 46v8h-4-6v-8h6z" fill="#ccd1d9"></path></g><g><path d="m12 46v8h-4-6v-8h6z" fill="#ccd1d9"></path></g><g><path d="m38 38v8h-6-4v-8h4z" fill="#ccd1d9"></path></g><g><path d="m18 38v8h-6-4v-8h4z" fill="#ccd1d9"></path></g><g><path d="m42 30h10v4.07l-2-2-3.03 3.03c-.4.4-.95.63-1.52.63-.33 0-.66-.08-.96-.23l-2.49-1.25z" fill="#ccd1d9"></path></g><g><path d="m32 30v8h-4-6v-8z" fill="#ccd1d9"></path></g><g><path d="m12 30v8h-4-6v-8z" fill="#ccd1d9"></path></g><g><path d="m56 35.26v-.01l6-3v13.93c0 6.77-4.26 12.92-10.6 15.29l-1.4.53-1.4-.53c-3.73-1.4-6.75-4.1-8.59-7.47-1.29-2.36-2.01-5.04-2.01-7.82v-.18-8-5.75l4 2 2.49 1.25c.3.15.63.23.96.23.57 0 1.12-.23 1.52-.63l3.03-3.03 2 2 1.03 1.03c.4.4.95.63 1.52.63.33 0 .66-.08.96-.23z" fill="#fcd770"></path></g><g><path d="m57.3 39.08c-.86.43-1.8.65-2.75.65-1.63 0-3.2-.65-4.35-1.8l-.2-.2-.2.2c-1.15 1.15-2.72 1.8-4.35 1.8-.95 0-1.89-.22-2.75-.65l-.7-.35v7.45c0 5.14 3.19 9.74 8 11.55 4.81-1.81 8-6.41 8-11.55v-7.45z" fill="#ffeaa7"></path></g><g><path d="m29 18h3.17 4.83 9 6 2c1.1 0 2 .9 2 2v10h-4-10-10-10-10-10v-10c0-1.1.9-2 2-2h1 9 1 4.83 7.17z" fill="#b4dd7f"></path></g><g><path d="m50 22c1.1 0 2 .9 2 2 0 .55-.22 1.05-.59 1.41-.36.37-.86.59-1.41.59h-18c-1.1 0-2-.9-2-2 0-.55.22-1.05.59-1.41.36-.37.86-.59 1.41-.59z" fill="#ffeaa7"></path></g><g><circle cx="24" cy="24" fill="#e6e9ed" r="2"></circle></g><g><circle cx="16" cy="24" fill="#e6e9ed" r="2"></circle></g><g><circle cx="8" cy="24" fill="#e6e9ed" r="2"></circle></g><g><path d="m52.21 12.11c-1.45-.73-2.68-1.82-3.58-3.17l-.63-.94-.89 1.34c-.72 1.08-1.11 2.36-1.11 3.66 0-1.3-.39-2.58-1.11-3.66l-.89-1.34-.63.94c-.401.602-.877 1.143-1.4 1.632-.14-1.057-.789-1.986-1.76-2.462-1.45-.73-2.68-1.82-3.58-3.17l-.63-.94-.89 1.34c-.72 1.08-1.11 3.66-1.11 3.66s-.39-2.58-1.11-3.66l-.89-1.34-.63.94c-.855 1.282-2.014 2.319-3.37 3.047v-.987c0-1.3-.39-2.58-1.11-3.66l-.89-1.34-.63.94c-.9 1.35-2.13 2.44-3.58 3.17-.971.477-1.62 1.405-1.76 2.462-.523-.49-.999-1.03-1.4-1.632l-.63-.94-.89 1.34c-.72 1.08-1.11 2.36-1.11 3.66 0-1.3-.39-2.58-1.11-3.66l-.89-1.34-.63.94c-.9 1.35-2.13 2.44-3.58 3.17-.59.29-1.07.75-1.37 1.31l-2.42-2.42-.15.3c-.56 1.11-1.4 2.06-2.43 2.75-.89.6-1.42 1.59-1.42 2.65 0 .69.22 1.34.6 1.87s.93.94 1.58 1.16l.82.27h47l.21-.11c1.1-.54 1.79-1.66 1.79-2.89s-.69-2.35-1.79-2.89z" fill="#ff826e"></path></g></g><g><path d="m50.905 37.219-.905-.906-.905.905c-1.521 1.521-4.02 1.927-5.946.965l-2.149-1.074v9.074c0 5.525 3.476 10.54 8.648 12.48l.352.133.352-.132c5.172-1.94 8.648-6.955 8.648-12.48v-9.074l-2.148 1.074c-1.926.962-4.425.556-5.947-.965zm6.095 3.074v5.891c0 4.195-2.362 8.039-6 9.988v-11.444h-2v11.444c-3.638-1.949-6-5.793-6-9.988v-5.891c1.959.714 4.198.482 6-.532v2.966h2v-2.966c1.802 1.014 4.041 1.248 6 .532z"></path><path d="m57 33.637v-13.637c0-1.494-1.101-2.727-2.533-2.953.339-.614.533-1.311.533-2.047 0-1.615-.897-3.067-2.342-3.789-1.291-.646-2.396-1.621-3.197-2.822l-1.461-2.192-1.723 2.584c-.106.158-.186.328-.279.493-.092-.162-.171-.331-.276-.487l-1.719-2.59-1.466 2.188c-.068.101-.154.199-.228.3-.402-.616-.962-1.13-1.652-1.475-1.291-.646-2.396-1.621-3.197-2.822l-1.46-2.191-1.723 2.584c-.098.147-.172.305-.259.457-.092-.145-.191-.294-.296-.452l-1.719-2.59-1.466 2.188c-.439.657-.986 1.242-1.601 1.753-.136-1.197-.539-2.346-1.214-3.357l-1.722-2.583-1.461 2.191c-.801 1.201-1.906 2.177-3.197 2.822-.697.348-1.263.87-1.666 1.495-.081-.108-.173-.213-.245-.322l-1.465-2.187-1.718 2.588c-.099.148-.174.308-.261.462-.089-.155-.164-.317-.264-.466l-1.723-2.583-1.461 2.191c-.801 1.201-1.906 2.177-3.197 2.822-.377.189-.714.43-1.011.707l-2.606-2.606-.769 1.542c-.479.957-1.202 1.776-2.093 2.37-1.167.778-1.863 2.08-1.863 3.481 0 1.119.444 2.157 1.189 2.92-.718.549-1.189 1.405-1.189 2.376v40c0 1.654 1.346 3 3 3h45.818l.182.068 1.755-.659c6.726-2.521 11.245-9.042 11.245-16.225v-15.547zm-20 11.363h-8v-6h8zm-14 8v-6h8v6zm-10 0v-6h8v6zm4-14v6h-8v-6zm10 0v6h-8v-6zm6-2v-6h4v6zm-2 0h-8v-6h8zm-10 0h-8v-6h8zm-10 0h-8v-6h8zm-4 2v6h-4v-6zm4 8v6h-8v-6zm6 8v6h-8v-6zm2 0h8v6h-8zm10 0h8v6h-8zm10 0h.432c1.445 2.436 3.481 4.506 5.94 6h-6.372zm-6-2v-6h4.032c.1 2.098.582 4.124 1.39 6zm4.727-22h3.273v1.637zm5.273 0h6.656l-3.39 3.391c-.339.339-.896.432-1.329.215l-1.937-.969zm7.344 0h.656v.656zm2.656 0h2v3.625c-.427.178-.944.088-1.267-.234l-.733-.734zm2-11v9h-52v-9c0-.552.448-1 1-1h50c.552 0 1 .448 1 1zm-38.937-3c.111-.76.37-1.495.761-2.154.4.644.978 1.174 1.657 1.514.259.13.432.366.491.641h-2.909zm16.964 0c.059-.274.232-.511.492-.641.678-.34 1.256-.87 1.656-1.514.391.659.65 1.394.761 2.154h-2.909zm-1.034-11.203.068.104c.683 1.023.939 1.406.939 3.099h2c0-1.11.325-2.186.941-3.109l.063-.094c.974 1.353 2.267 2.456 3.76 3.203.762.381 1.236 1.147 1.236 2s-.474 1.619-1.236 2l-.211.105.895 1.789.211-.105c1.444-.722 2.341-2.174 2.341-3.789 0-.017-.003-.033-.003-.05.366-.373.707-.757.996-1.154l.065.099c.616.923.942 1.998.942 3.105h2c0-1.11.325-2.186.941-3.109l.063-.094c.974 1.354 2.267 2.456 3.76 3.203.762.381 1.236 1.147 1.236 2s-.474 1.619-1.236 2h-13.812c-.191-1.765-.984-3.446-2.245-4.707l-.981-.981-1.155 2.312c-.203.407-.54.744-.946.947-.942.471-1.541 1.391-1.61 2.43h-3.853l-1.037-.346c-.673-.225-1.125-.852-1.125-1.56 0-.438.171-.852.481-1.162.674-.673 1.259-1.423 1.748-2.235.495.659.771 1.474.771 2.302h2c0-1.16-.357-2.302-1-3.259v-2.196c1.173-.721 2.201-1.65 2.993-2.748zm-28.02 7.09c.892-.595 1.657-1.36 2.253-2.247l1.004 1.004c-.145.429-.23.884-.23 1.356 0 1.615.897 3.067 2.342 3.789l.211.105.895-1.789-.212-.105c-.762-.381-1.236-1.147-1.236-2s.474-1.619 1.236-2c1.493-.747 2.786-1.85 3.76-3.203l.063.094c.578.866.888 1.867.926 2.903-.002.069-.015.137-.015.206h.03 1.97.03c0-.069-.013-.137-.015-.206.038-1.033.35-2.033.928-2.902l.064-.097c.296.408.646.801 1.024 1.184 0 .007-.001.014-.001.021 0 1.615.897 3.067 2.342 3.789l.211.105.895-1.789-.212-.105c-.762-.381-1.236-1.147-1.236-2s.474-1.619 1.236-2c1.493-.747 2.786-1.85 3.76-3.203l.063.094c.616.923.941 1.999.941 3.109v1.586l-.274-.274-.845 1.69c-.466.933-1.076 1.779-1.813 2.517-.689.688-1.068 1.603-1.068 2.576 0 .693.204 1.344.549 1.905h-2.563c-.069-1.038-.668-1.959-1.609-2.43-.407-.203-.744-.54-.947-.946l-1.155-2.313-.981.981c-1.261 1.261-2.054 2.942-2.245 4.707h-8.888l-.667-.223c-.893-.297-1.494-1.13-1.494-2.072 0-.731.363-1.411.973-1.817zm-.973 47.113v-5h4v6h-3c-.552 0-1-.448-1-1zm58-13.816c0 6.354-3.997 12.122-9.947 14.353l-1.053.395-1.053-.396h-.001c-5.949-2.23-9.946-7.998-9.946-14.352v-12.311l5.043 2.521c1.179.59 2.708.341 3.638-.59l2.319-2.32 2.319 2.32c.929.93 2.448 1.182 3.64.59l5.041-2.521z"></path><path d="m50 21h-18c-1.654 0-3 1.346-3 3s1.346 3 3 3h18c1.654 0 3-1.346 3-3s-1.346-3-3-3zm0 4h-18c-.552 0-1-.448-1-1s.448-1 1-1h18c.552 0 1 .448 1 1s-.448 1-1 1z"></path><path d="m8 21c-1.654 0-3 1.346-3 3s1.346 3 3 3 3-1.346 3-3-1.346-3-3-3zm0 4c-.552 0-1-.448-1-1s.448-1 1-1 1 .448 1 1-.448 1-1 1z"></path><path d="m16 21c-1.654 0-3 1.346-3 3s1.346 3 3 3 3-1.346 3-3-1.346-3-3-3zm0 4c-.552 0-1-.448-1-1s.448-1 1-1 1 .448 1 1-.448 1-1 1z"></path><path d="m24 21c-1.654 0-3 1.346-3 3s1.346 3 3 3 3-1.346 3-3-1.346-3-3-3zm0 4c-.552 0-1-.448-1-1s.448-1 1-1 1 .448 1 1-.448 1-1 1z"></path></g></g></svg>