<svg xmlns="http://www.w3.org/2000/svg" id="Layer_1" height="512" viewBox="0 0 512 512" width="512" data-name="Layer 1"><path d="m487.607 244.212-41.943-4.436c-10.935-21.121-26.615-39.865-46.608-55.773l2.347-21.7c2.222-19.99 2.654-26.328 2.059-30.142-.939-7.744-7.238-12.946-15.738-12.989-8-.258-19.309 2.14-34.385 7.281l9.277-53.4a6 6 0 0 0 -4.885-6.938l-267.208-46.427a6 6 0 0 0 -6.939 4.885l-26.41 152.033a6 6 0 0 0 4.884 6.939l66.585 11.567a173.174 173.174 0 0 0 -23.463 26.968 5.813 5.813 0 0 0 -.535.438 45.944 45.944 0 0 1 -64.974-64.974 6 6 0 0 0 -8.485-8.485 57.963 57.963 0 0 0 61.174 95.314l-.782 1.507c-.026.051-.052.1-.077.153-8.356 17.309-13.29 34.362-14.31 50.686-.008.124-.191.249-.191.374v7.294c0 31.056 10.372 61.086 29.693 87.056-17.262 24.89-15.284 57.671 5.062 79.117a70.155 70.155 0 0 0 49.009 21.54c.059 0 .163-.1.222-.1h2.084a68.839 68.839 0 0 0 47.917-18.759l11.427-10.918a213.988 213.988 0 0 0 80.225 2.516l8.46 8.028a72.848 72.848 0 0 0 46.7 19.461c1.035.044 2.066.069 3.1.069a70.566 70.566 0 0 0 44.601-15.627 62.124 62.124 0 0 0 17.4-73.388 160.146 160.146 0 0 0 22.755-33.869l42.095-4.457c.183-.019.46-.047.64-.083 5.512-1.1 9.607-5.767 9.607-11.093v-98.466a11.219 11.219 0 0 0 -10.39-11.202zm-393.227-211.673 255.385 44.361-24.356 140.21-255.385-44.361zm391.62 320.661-43.522 4.6a8.423 8.423 0 0 0 -5.4 2.785 6.077 6.077 0 0 0 -1.19 1.647 148.337 148.337 0 0 1 -24.049 35.549 6.005 6.005 0 0 0 -1.47 2.965 6.737 6.737 0 0 0 .741 5.737 50.188 50.188 0 0 1 -13.21 61.004 58.725 58.725 0 0 1 -39.6 12.859 60.811 60.811 0 0 1 -38.976-16.2l-9.857-9.338a7.881 7.881 0 0 0 -5.732-2.2 5.946 5.946 0 0 0 -1.023.088 201.765 201.765 0 0 1 -79.918-2.534 6 6 0 0 0 -1.374-.159 7.882 7.882 0 0 0 -5.747 2.219l-12.984 12.36a56.885 56.885 0 0 1 -39.619 15.418h-2c-15.545 0-29.945-6.745-40.541-17.822-16.977-17.895-17.9-45.682-2.2-66.145a5.738 5.738 0 0 0 .607-.943 7.31 7.31 0 0 0 -.94-8.606c-18.857-24.389-29-52.764-29-82.1v-7.105c1-14.484 5.576-30.367 13.092-45.956l7.253-13.816a161.357 161.357 0 0 1 34.36-39.774l185.539 32.227a6.157 6.157 0 0 0 1.038.089 6.007 6.007 0 0 0 5.92-4.973l14.779-85.068c20.754-7.588 31.245-9.026 36.425-8.846q.1 0 .207 0c3.66 0 3.86 1.8 3.936 2.478.012.108.027.216.045.323.437 2.625-.45 11.89-2.131 27.02l-2.605 23.965a6.107 6.107 0 0 0 -.035.649 7.872 7.872 0 0 0 2.279 5.8 6 6 0 0 0 .567.5c20.166 15.629 35.723 34.217 46.239 55.249a6.009 6.009 0 0 0 1.124 1.559 8.558 8.558 0 0 0 5.446 2.785l43.526 4.61z"></path><path d="m348.019 247.851a21.63 21.63 0 1 0 21.629 21.63 21.654 21.654 0 0 0 -21.629-21.63zm0 31.259a9.63 9.63 0 1 1 9.629-9.629 9.64 9.64 0 0 1 -9.629 9.629z"></path><path d="m324.2 111.78c-7.55-1.454-13.636-4.872-17.6-9.886a21.333 21.333 0 0 1 -4.453-16.015 6 6 0 0 0 -4.927-6.661l-153.809-26.718a6 6 0 0 0 -6.884 4.609c-2.727 12.244-14.993 19.191-29.841 16.885a6 6 0 0 0 -6.831 4.9l-9.043 52.057a6 6 0 0 0 4.777 6.919c15 2.889 24 13.319 22.4 25.954a6 6 0 0 0 4.925 6.667l153.464 26.659a5.99 5.99 0 0 0 6.884-4.609c2.723-12.244 14.994-19.186 29.841-16.886a6 6 0 0 0 6.831-4.9l9.043-52.057a6 6 0 0 0 -4.777-6.918zm-15.141 51.47c-16.354-.511-30.238 7.73-35.782 21.184l-143.126-24.864c-.575-14.731-10.728-27-26.566-32.031l7.146-41.139q.714.022 1.42.022c15.74 0 28.979-8.144 34.362-21.206l143.469 24.925c.561 14.717 10.579 26.952 26.222 31.965z"></path><path d="m217.774 79.468a46.037 46.037 0 0 0 -15.759 90.715 46.555 46.555 0 0 0 7.978.691 46.043 46.043 0 0 0 7.781-91.406zm25.655 51.183a34.057 34.057 0 1 1 -27.709-39.359 33.813 33.813 0 0 1 27.709 39.359z"></path></svg>