<svg xmlns="http://www.w3.org/2000/svg" height="512" viewBox="0 0 60 60" width="512"><g id="Page-1" fill="none" fill-rule="evenodd"><g id="037---Speedometer" fill="rgb(0,0,0)" fill-rule="nonzero"><path id="Shape" d="m30 60c16.5685425 0 30-13.4314575 30-30s-13.4314575-30-30-30-30 13.4314575-30 30c.01873704 16.5607751 13.4392249 29.981263 30 30zm0-58c15.463973 0 28 12.536027 28 28s-12.536027 28-28 28-28-12.536027-28-28c.01763454-15.4566626 12.5433374-27.98236546 28-28z"></path><path id="Shape" d="m21 49h18c1.1045695 0 2-.8954305 2-2v-3c0-1.1045695-.8954305-2-2-2h-18c-1.1045695 0-2 .8954305-2 2v3c0 1.1045695.8954305 2 2 2zm10-2h-2v-3h2zm2-3h2v3h-2zm-6 3h-2v-3h2zm12 0h-2v-3h2zm-18-3h2v3h-2z"></path><path id="Shape" d="m4 30c0 14.3594035 11.6405965 26 26 26s26-11.6405965 26-26c-.0000003-14.3594033-11.6405967-25.99999945-26-25.99999945s-25.9999997 11.64059615-26 25.99999945zm13.151-20.255.983 1.7c.1773616.3119508.5082732.5049532.8671183.5057421s.6906021-.1907567.8693336-.5019247c.1787314-.3111679.1770325-.694247-.0044519-1.0038174l-.985-1.706c3.1297892-1.64441338 6.5863849-2.57150111 10.119-2.714v4.975c0 .5522847.4477153 1 1 1s1-.4477153 1-1v-4.975c3.5327695.14311807 6.9893737 1.07089127 10.119 2.716l-.985 1.706c-.1814844.3095704-.1831833.6926495-.0044519 1.0038174.1787315.311168.5104885.5027136.8693336.5019247s.6897567-.1937913.8671183-.5057421l.983-1.7c2.980035 1.8980173 5.5079827 4.425965 7.406 7.406l-1.7.983c-.3119508.1773616-.5049532.5082732-.5057421.8671183s.1907567.6906021.5019247.8693336c.3111679.1787314.694247.1770325 1.0038174-.0044519l1.706-.985c1.6438766 3.1292827 2.5709405 6.5851061 2.714 10.117h-4.975c-.5522847 0-1 .4477153-1 1s.4477153 1 1 1h4.975c-.1432512 3.5327492-1.0710167 6.9893247-2.716 10.119l-1.706-.985c-.3095704-.1814844-.6926495-.1831833-1.0038174-.0044519-.311168.1787315-.5027136.5104885-.5019247.8693336s.1937913.6897567.5057421.8671183l1.7.983c-4.3942508 6.9428919-12.0383591 11.1513348-20.255 11.1513348s-15.8607492-4.2084429-20.255-11.1513348l1.7-.983c.3119508-.1773616.5049532-.5082732.5057421-.8671183s-.1907567-.6906021-.5019247-.8693336c-.3111679-.1787314-.694247-.1770325-1.0038174.0044519l-1.706.985c-1.64359267-3.130001-2.56998723-6.5865595-2.712-10.119h4.975c.5522847 0 1-.4477153 1-1s-.4477153-1-1-1h-4.975c.14338426-3.5327289 1.07114201-6.9892756 2.716-10.119l1.706.985c.47786.2716903 1.0854205.1067416 1.3602745-.3693057.2748541-.4760473.1139391-1.0846885-.3602745-1.3626943l-1.7-.983c1.8974416-2.9798223 4.4246903-5.5077536 7.404-7.406z"></path><path id="Shape" d="m25 36c.2651948-.0000566.5195073-.1054506.707-.293l2.274-2.274c.6095595.3676011 1.3071846.5635166 2.019.567 2.209139 0 4-1.790861 4-4-.0034834-.7118154-.1993989-1.4094405-.567-2.019l11.774-11.774c.3789722-.3923789.3735524-1.0160848-.0121814-1.4018186s-1.0094397-.3911536-1.4018186-.0121814l-11.774 11.774c-.6095595-.3676011-1.3071846-.5635166-2.019-.567-2.209139 0-4 1.790861-4 4 .0034834.7118154.1993989 1.4094405.567 2.019l-2.274 2.274c-.2859079.2859943-.3714219.7160366-.216678 1.0896546.1547439.3736179.5192821.6172591.923678.6173454zm5-8c.5296842-.0002812 1.0377146.2101988 1.412.585.7389226.7874282.7193549 2.0192335-.0442058 2.7827942s-1.995366.7831284-2.7827942.0442058c-.5705162-.5723032-.7405728-1.4317026-.4310097-2.1781545.3095632-.7464519 1.0379135-1.2332705 1.8460097-1.2338455z"></path></g></g></svg>